{"title":"Romance.DVDRip.XviD-nsiervi_700Mb","uid":4783800,"size":729497600,"categoryP":"video","categoryS":"movies","magnet":"?xt=urn:btih:7e2bc7feca56c5ad7352cce8330ea03723405af0&amp;dn=Romance.DVDRip.XviD-nsiervi_700Mb&amp;tr=udp%3A%2F%2Ftracker.openbittorrent.com%3A80&amp;tr=udp%3A%2F%2Fopen.demonii.com%3A1337&amp;tr=udp%3A%2F%2Ftracker.coppersurfer.tk%3A6969&amp;tr=udp%3A%2F%2Fexodus.desync.com%3A6969","seeders":1,"leechers":0,"uploader":"nsiervi","files":1,"time":1237479759,"description":"Cinema Nacional\nApresenta\n\n( Romance ) ( Audio PT-Br )\n\nSinopse:\nAna (LetÃƒÂ­cia Sabatella) e Afonso (Wagner Moura), dois jovens atores, se apaixonam durante a montagem teatral do Romance de TristÃƒÂ£o e Isolda. Ao mesmo tempo que recriam a histÃƒÂ³ria deste casal mÃƒÂ­tico que estÃƒÂ¡ na origem de todos os casais romÃƒÂ¢nticos, eles tentam descobrir para si prÃƒÂ³prios uma nova forma de se relacionar, menos trÃƒÂ¡gica e mais livre, porÃƒÂ©m carregada da mesma emoÃƒÂ§ÃƒÂ£o. Ao narrar o romance contemporÃƒÂ¢neo de Ana e Afonso, tendo como pano de fundo o romance clÃƒÂ¡ssico de TristÃƒÂ£o e Isolda, Romance ÃƒÂ© uma histÃƒÂ³ria de amor e uma histÃƒÂ³ria sobre o amor.\n\nElenco:\nWagner Moura ... Pedro\nLetÃƒÂ­cia Sabatella ... Ana\nAndrea BeltrÃƒÂ£o\nJosÃƒÂ© Wilker\nBruno Garcia\nTonico Pereira\nVladimir Brichta ... Orlando\nEdmilson Barros\nMarco Nanini\n\nInfos do Filme:\nTÃƒÂ­tulo no Brasil: Romance\nTÃƒÂ­tulo Original: Romance\nPaÃƒÂ­s de Origem: Brasil\nGÃƒÂªnero: Drama\nClassificaÃƒÂ§ÃƒÂ£o etÃƒÂ¡ria: 14 anos\nTempo de DuraÃƒÂ§ÃƒÂ£o: 105 minutos\nAno de LanÃƒÂ§amento: 2008\nEstrÃƒÂ©ia no Brasil: 14/11/2008\nSite Oficial: \nEstÃƒÂºdio/Distrib.: Buena Vista Pictures\nDireÃƒÂ§ÃƒÂ£o: Guel Arraes \nLink IMDB: http://www.imdb.com/title/tt0884177/\n\nDados do Arquivo:\nComplete name                    : E:Romance LanÃƒÂ§amentoRomance.DVDRip.XviD-nsiervi_700MbRomance.DVDRip.XviD-nsiervi.avi\nFormat                           : AVI\nFormat/Info                      : Audio Video Interleave\nFile size                        : 696 MiB\nDuration                         : 1h 44mn\nOverall bit rate                 : 929 Kbps\nWriting application              : VirtualDubMod 1.5.10.2 (build 2540/release)\nWriting library                  : VirtualDubMod build 2540/release\n\nVideo\nFormat                           : MPEG-4 Visual\nFormat profile                   : Streaming Video@L1\nFormat settings, BVOP            : Yes\nFormat settings, QPel            : No\nFormat settings, GMC             : No warppoints\nFormat settings, Matrix          : Default\nCodec ID                         : XVID\nCodec ID/Hint                    : XviD\nDuration                         : 1h 44mn\nBit rate                         : 792 Kbps\nWidth                            : 592 pixels\nHeight                           : 320 pixels\nDisplay aspect ratio             : 1.850\nFrame rate                       : 23.976 fps\nResolution                       : 24 bits\nColorimetry                      : 4:2:0\nScan type                        : Progressive\nBits/(Pixel*Frame)               : 0.174\nStream size                      : 593 MiB (85%)\nWriting library                  : XviD 1.1.2 (UTC 2006-11-01)\n\nAudio\nFormat                           : MPEG Audio\nFormat version                   : Version 1\nFormat profile                   : Layer 3\nCodec ID                         : 55\nCodec ID/Hint                    : MP3\nDuration                         : 1h 44mn\nBit rate mode                    : Constant\nBit rate                         : 128 Kbps\nChannel(s)                       : 2 channels\nSampling rate                    : 48.0 KHz\nResolution                       : 16 bits\nStream size                      : 95.8 MiB (14%)\nAlignment                        : Aligned on interleaves\nInterleave, duration             : 42 ms (1.00 video frame)\nInterleave, preload duration     : 504 ms\n\n\nThx From Brazil","torrent":{"xt":"urn:btih:7e2bc7feca56c5ad7352cce8330ea03723405af0","amp;dn":"Romance.DVDRip.XviD-nsiervi_700Mb","amp;tr":["udp%3A%2F%2Ftracker.openbittorrent.com%3A80","udp%3A%2F%2Fopen.demonii.com%3A1337","udp%3A%2F%2Ftracker.coppersurfer.tk%3A6969","udp%3A%2F%2Fexodus.desync.com%3A6969"],"infoHash":"7e2bc7feca56c5ad7352cce8330ea03723405af0","infoHashBuffer":{"type":"Buffer","data":[126,43,199,254,202,86,197,173,115,82,204,232,51,14,160,55,35,64,90,240]},"announce":[],"urlList":[]}}